# AST/ASF file generated using VICON BodyLanguage
# -----------------------------------------------
:version 1.10
:name VICON
:units
  mass 1.0
  length 0.45
  angle deg
:documentation
   .ast/.asf automatically generated from VICON data using
   VICON BodyBuilder and BodyLanguage model FoxedUp or BRILLIANT.MOD
:root
   order TX TY TZ RX RY RZ
   axis XYZ
   position 0 0 0  
   orientation 0 0 0 
:bonedata
  begin
     id 1 
     name lhipjoint
     direction 0.635376 -0.686425 0.353719 
     length 2.47244 
     axis 0 0 0  XYZ
  end
  begin
     id 2 
     name lfemur
     direction 0.34202 -0.939693 0  
     length 7.25268  
     axis 0 0 20  XYZ
    dof rx ry rz
    limits (-160.0 20.0)
           (-70.0 70.0)
           (-60.0 70.0)
  end
  begin
     id 3 
     name ltibia
     direction 0.34202 -0.939693 0   
     length 7.6767   
     axis 0 0 20   XYZ
    dof rx
    limits (-10.0 170.0)
  end
  begin
     id 4 
     name lfoot
     direction 0.0803374 -0.220725 0.972022   
     length 2.22945   
     axis -90 7.62852e-016 20   XYZ
    dof rx rz
    limits (-45.0 90.0)
           (-70.0 20.0)
  end
  begin
     id 5 
     name ltoes
     direction 1.53579e-011 -4.21994e-011 1   
     length 1.11848   
     axis -90 7.62852e-016 20   XYZ
    dof rx
    limits (-90.0 20.0)
  end
  begin
     id 6 
     name rhipjoint
     direction -0.664428 -0.664335 0.342336   
     length 2.55466  
     axis 0 0 0  XYZ 
  end
  begin
     id 7 
     name rfemur
     direction -0.34202 -0.939693 0   
     length 6.83172   
     axis 0 0 -20   XYZ
    dof rx ry rz
    limits (-160.0 20.0)
           (-70.0 70.0)
           (-70.0 60.0)
  end
  begin
     id 8 
     name rtibia
     direction -0.34202 -0.939693 0   
     length 7.62692   
     axis 0 0 -20   XYZ
    dof rx
    limits (-10.0 170.0)
 end
 begin
     id 9 
     name rfoot
     direction -0.0949276 -0.260811 0.960711   
     length 2.19684  
     axis -90 -7.62852e-016 -20   XYZ
    dof rx rz
    limits (-45.0 90.0)
           (-20.0 70.0)
  end
  begin
     id 10 
     name rtoes
     direction -1.53543e-011 -4.2183e-011 1   
     length 1.09848   
     axis -90 -7.62852e-016 -20   XYZ
    dof rx
    limits (-90.0 20.0)
  end
  begin
     id 11 
     name lowerback
     direction 0.0118782 0.999815 -0.0151555   
     length 2.15772   
     axis 0 0 0   XYZ
    dof rx ry rz
    limits (-20.0 45.0)
           (-30.0 30.0)
           (-30.0 30.0)
  end
  begin
     id 12 
     name upperback
     direction 0.00130825 0.999065 0.0432113   
     length 2.14863   
     axis 0 0 0   XYZ
    dof rx ry rz
    limits (-20.0 45.0)
           (-30.0 30.0)
           (-30.0 30.0)
  end
  begin
     id 13 
     name thorax
     direction -0.00347005 0.998773 0.0494011   
     length 2.14936   
     axis 0 0 0   XYZ
    dof rx ry rz
    limits (-20.0 45.0)
           (-30.0 30.0)
           (-30.0 30.0)
  end
  begin
     id 14 
     name lowerneck
     direction -0.0262159 0.99424 0.103921   
     length 1.69373   
     axis 0 0 0   XYZ
    dof rx ry rz
    limits (-20.0 45.0)
           (-30.0 30.0)
           (-30.0 30.0)
  end
  begin
     id 15 
     name upperneck
     direction 0.0353511 0.977394 -0.20845   
     length 1.70857   
     axis 0 0 0   XYZ
    dof rx ry rz
    limits (-20.0 45.0)
           (-30.0 30.0)
           (-30.0 30.0)
  end
  begin
     id 16
     name head
     direction 0.0139214 0.996594 -0.0812836  
     length 1.72777  
     axis 0 0 0   XYZ
    dof rx ry rz
    limits (-20.0 45.0)
           (-30.0 30.0)
           (-30.0 30.0)
  end
  begin
     id 17 
     name lclavicle
     direction 0.841247 0.537205 -0.0609508  
     length 3.55371  
     axis 0 0 0   XYZ
    dof ry rz
    limits (-20.0 10.0)
           (0.0 20.0)
  end
  begin
     id 18 
     name lhumerus
     direction 1 -4.48964e-011 1.60116e-018   
     length 4.91377   
     axis -180 -30 -90   XYZ
    dof rx ry rz
    limits (-60.0 90.0)
           (-90.0 90.0)
           (-90.0 90.0)
  end
  begin
     id 19
     name lradius
     direction 1 -4.48989e-011 -8.93847e-027   
     length 3.00291   
     axis -180 -30 -90   XYZ
    dof rx
    limits (-10.0 170.0)
  end
  begin
     id 20
     name lwrist
     direction 1 -4.48932e-011 -7.31504e-027   
     length 1.50145   
     axis 5.74121e-015 90 90   XYZ
    dof ry
    limits (-180.0 0.0)
 end
  begin
     id 21 
     name lhand
     direction 1 -4.48971e-011 -1.46301e-026   
     length 0.450922   
     axis 9.33524e-015 90 90   XYZ
    dof rx rz
    limits (-90.0 90.0)
           (-45.0 45.0)
  end
  begin
     id 22 
     name lfingers
     direction 1 -4.49039e-011 -2.92602e-026   
     length 0.363545   
     axis 1.86705e-014 90 90   XYZ
    dof rx
    limits (0.0 90.0)
  end
  begin
     id 23
     name lthumb
     direction 0.707107 -6.34941e-011 0.707107   
     length 0.52198   
     axis -90 45 2.85299e-015   XYZ
    dof rx rz
    limits (-45.0 45.0)
           (-45.0 45.0)
  end
  begin
     id 24 
     name rclavicle
     direction -0.825079 0.56158 -0.0622297   
     length 3.39909  
     axis 0 0 0   XYZ 
    dof ry rz
    limits (-10.0 20.0)
           (-20.0 0.0)
  end
  begin
     id 25 
     name rhumerus
     direction -1 -4.48965e-011 1.61691e-027  
     length 4.86725   
     axis -180 30 90   XYZ
    dof rx ry rz
    limits (-90.0 60.0)
           (-90.0 90.0)
           (-90.0 90.0)
  end
  begin
     id 26 
     name rradius
     direction -1 -4.48964e-011 -2.25776e-027   
     length 3.17144   
     axis -180 30 90   XYZ
    dof rx
    limits (-10.0 170.0)
  end
  begin
     id 27 
     name rwrist
     direction -1 -4.48961e-011 -7.31504e-027   
     length 1.58572   
     axis 5.74121e-015 -90 -90   XYZ
    dof ry
    limits (-180.0 0.0)
  end
  begin
     id 28
     name rhand
     direction -1 -4.49013e-011 -1.46301e-026   
     length 0.419368   
     axis 9.33524e-015 -90 -90   XYZ
    dof rx rz
    limits (-90.0 90.0)
           (-45.0 45.0)
  end
  begin
     id 29
     name rfingers
     direction -1 -4.489e-011 -2.92602e-026   
     length 0.338105   
     axis 1.86705e-014 -90 -90   XYZ
    dof rx
    limits (0.0 90.0)
  end
  begin
     id 30
     name rthumb
     direction -0.707107 -6.35022e-011 0.707107   
     length 0.485453   
     axis -90 -45 -2.85299e-015   XYZ
    dof rx rz
    limits (-45.0 45.0)
           (-45.0 45.0)
  end
:hierarchy
  begin
    root lhipjoint rhipjoint lowerback
    lhipjoint lfemur
    lfemur ltibia
    ltibia lfoot
    lfoot ltoes
    rhipjoint rfemur
    rfemur rtibia
    rtibia rfoot
    rfoot rtoes
    lowerback upperback
    upperback thorax
    thorax lowerneck lclavicle rclavicle
    lowerneck upperneck
    upperneck head
    lclavicle lhumerus
    lhumerus lradius
    lradius lwrist
    lwrist lhand lthumb
    lhand lfingers
    rclavicle rhumerus
    rhumerus rradius
    rradius rwrist
    rwrist rhand rthumb
    rhand rfingers
  end

#!OML:ASF H:\Swim 2\Project 1\Capture day 1\Session 1\male.ASF
:FULLY-SPECIFIED
:DEGREES
1180
root 0.369429 15.1385 10.0456 93.3533 -50.0701 -1.76883
lowerback -17.2578 3.268 14.9227
upperback 10.973 1.65907 -7.81892
thorax 24.3023 4.38537 -18.0682
lowerneck -17.3934 -0.322073 -0.864642
upperneck 15.6538 -2.05185 9.30209
head 7.83112 -0.134962 2.9928
rclavicle -2.06736e-014 -8.70677e-014
rhumerus 92.1786 -27.8237 -43.1674
rradius 31.8249
rwrist -26.2107
rhand -20.5636 4.10825
rfingers 7.12502
rthumb 5.79566 -25.7925
lclavicle -2.06736e-014 -8.70677e-014
lhumerus 465.127 21.9641 -337.101
lradius 24.8587
lwrist 19.0248
lhand -41.2237 -25.3373
lfingers 7.12502
lthumb -14.1472 4.16104
rfemur -67.2772 -0.138139 30.6264
rtibia 62.7769
rfoot 11.8616 -5.17033
rtoes 12.7684
lfemur -70.6504 7.844 -27.2651
ltibia 68.1506
lfoot 23.8889 -10.159
ltoes 13.6469
1181
root 0.40536 15.1255 10.0421 93.3198 -50.1076 -1.75044
lowerback -17.1845 3.28704 14.9582
upperback 11.0779 1.68004 -7.84701
thorax 24.4302 4.43358 -18.1418
lowerneck -17.9891 -0.374112 -0.860653
upperneck 16.2381 -2.23737 9.55457
head 8.14665 -0.167253 3.07147
rclavicle -4.53229e-014 1.96797e-014
rhumerus 92.9416 -27.6762 -43.9508
rradius 31.7998
rwrist -27.0681
rhand -21.5426 3.99455
rfingers 7.12502
rthumb 4.85041 -25.9299
lclavicle -4.53229e-014 1.96797e-014
lhumerus 465.678 22.1291 -336.569
lradius 24.7752
lwrist 19.0166
lhand -41.6242 -25.5431
lfingers 7.12502
lthumb -14.5331 3.92785
rfemur -67.0039 -0.0497902 30.4817
rtibia 60.57
rfoot 11.0805 -4.91777
rtoes 11.7357
lfemur -70.8436 7.85576 -27.5977
ltibia 66.378
lfoot 23.9509 -9.98086
ltoes 14.0725
1182
root 0.441016 15.1088 10.0401 93.3444 -50.1607 -1.75264
lowerback -17.1762 3.32139 14.9659
upperback 11.1519 1.72505 -7.87737
thorax 24.5684 4.48574 -18.1889
lowerneck -18.4691 -0.407653 -0.809386
upperneck 16.7006 -2.39055 9.75414
head 8.40053 -0.191267 3.12558
rclavicle 9.54166e-015 3.00165e-014
rhumerus 93.5856 -27.5536 -44.618
rradius 31.8468
rwrist -28.0278
rhand -22.4928 4.03193
rfingers 7.12502
rthumb 3.93286 -25.9115
lclavicle 9.54166e-015 3.00165e-014
lhumerus 466.217 22.2458 -336.032
lradius 24.7075
lwrist 19.2009
lhand -41.9403 -25.885
lfingers 7.12502
lthumb -14.8376 3.56373
rfemur -66.6775 0.0261193 30.353
rtibia 58.2935
rfoot 10.2744 -4.66384
rtoes 10.57
lfemur -70.9838 7.82759 -27.8916
ltibia 64.5233
lfoot 24.0174 -9.80474
ltoes 14.8556
1183
root 0.475915 15.0891 10.0396 93.4129 -50.2273 -1.76999
lowerback -17.2198 3.36502 14.9548
upperback 11.1915 1.78657 -7.91782
thorax 24.7005 4.53932 -18.2281
lowerneck -18.7269 -0.410321 -0.712442
upperneck 16.8554 -2.47856 9.92653
head 8.50766 -0.19827 3.16289
rclavicle 6.20208e-014 -5.96354e-016
rhumerus 94.0713 -27.4585 -45.1293
rradius 31.9648
rwrist -28.9929
rhand -23.4879 4.26546
rfingers 7.12502
rthumb 2.97189 -25.6936
lclavicle 6.20208e-014 -5.96354e-016
lhumerus 466.721 22.3203 -335.548
lradius 24.6424
lwrist 19.5315
lhand -42.1202 -26.4804
lfingers 7.12502
lthumb -15.011 2.95546
rfemur -66.3014 0.0799482 30.2464
rtibia 55.9939
rfoot 9.5122 -4.38618
rtoes 9.26418
lfemur -71.064 7.75309 -28.1244
ltibia 62.6346
lfoot 24.1081 -9.58101
ltoes 16.1333
1184
root 0.509897 15.0673 10.0404 93.5499 -50.2869 -1.8273
lowerback -17.3156 3.42292 14.9397
upperback 11.1938 1.86635 -7.96021
thorax 24.8228 4.59524 -18.2557
lowerneck -18.7452 -0.387151 -0.595245
upperneck 16.6457 -2.49828 10.0998
head 8.44462 -0.189108 3.19578
rclavicle 5.00937e-014 6.99722e-014
rhumerus 94.388 -27.3926 -45.4471
rradius 32.1535
rwrist -29.8687
rhand -24.54 4.57734
rfingers 7.12502
rthumb 1.95583 -25.3934
lclavicle 5.00937e-014 6.99722e-014
lhumerus 467.152 22.3898 -335.179
lradius 24.579
lwrist 19.9634
lhand -42.2657 -27.2819
lfingers 7.12502
lthumb -15.1511 2.14345
rfemur -65.8913 0.142533 30.1778
rtibia 53.7171
rfoot 8.88984 -4.08679
rtoes 7.96732
lfemur -71.1015 7.63562 -28.251
ltibia 60.768
lfoot 24.2711 -9.3342
ltoes 17.9973
1185
root 0.543191 15.044 10.0425 93.7412 -50.3475 -1.92602
lowerback -17.4455 3.48977 14.9211
upperback 11.1628 1.95884 -8.00443
thorax 24.9252 4.65006 -18.2733
lowerneck -18.5883 -0.352509 -0.464782
upperneck 16.1595 -2.47227 10.2652
head 8.25447 -0.172488 3.2218
rclavicle 1.05753e-013 3.57812e-015
rhumerus 94.5603 -27.3558 -45.5721
rradius 32.3657
rwrist -30.5701
rhand -25.6614 4.921
rfingers 7.12502
rthumb 0.872779 -25.057
lclavicle 1.05753e-013 3.57812e-015
lhumerus 467.516 22.4527 -334.901
lradius 24.4853
lwrist 20.3522
lhand -42.3968 -28.2405
lfingers 7.12502
lthumb -15.2774 1.1753
rfemur -65.4516 0.206229 30.1384
rtibia 51.5204
rfoot 8.47615 -3.77164
rtoes 6.72758
lfemur -71.0844 7.47394 -28.2692
ltibia 58.982
lfoot 24.3943 -9.11198
ltoes 19.8423
1186
root 0.576156 15.0204 10.0462 93.9583 -50.4143 -2.05579
lowerback -17.5831 3.55995 14.8954
upperback 11.1054 2.05892 -8.04461
thorax 24.9948 4.69848 -18.2718
lowerneck -18.3726 -0.327841 -0.375469
upperneck 15.5777 -2.44283 10.468
head 8.02395 -0.159119 3.26511
rclavicle -2.38542e-014 3.45885e-014
rhumerus 94.6044 -27.3452 -45.501
rradius 32.5736
rwrist -31.0718
rhand -26.8199 5.19065
rfingers 7.12502
rthumb -0.246112 -24.789
lclavicle -2.38542e-014 3.45885e-014
lhumerus 467.778 22.5335 -334.745
lradius 24.3795
lwrist 20.6271
lhand -42.6552 -29.1588
lfingers 7.12502
lthumb -15.5263 0.237828
rfemur -64.9847 0.26121 30.1199
rtibia 49.4669
rfoot 8.30094 -3.46067
rtoes 5.65273
lfemur -70.9945 7.24538 -28.1618
ltibia 57.3357
lfoot 24.4861 -8.92593
ltoes 21.5144
1187
root 0.609581 14.9968 10.0512 94.2003 -50.4924 -2.21784
lowerback -17.7247 3.63388 14.8582
upperback 11.024 2.16801 -8.07683
thorax 25.0314 4.73951 -18.2423
lowerneck -18.124 -0.316159 -0.308226
upperneck 14.9413 -2.41192 10.6517
head 7.77067 -0.152233 3.30419
rclavicle 3.18055e-014 1.66979e-014
rhumerus 94.5511 -27.3569 -45.2527
rradius 32.7535
rwrist -31.3815
rhand -27.9871 5.2841
rfingers 7.12502
rthumb -1.37341 -24.6912
lclavicle 3.18055e-014 1.66979e-014
lhumerus 467.953 22.624 -334.664
lradius 24.2587
lwrist 20.7034
lhand -43.0771 -29.9173
lfingers 7.12502
lthumb -15.9326 -0.552671
rfemur -64.5203 0.303541 30.1237
rtibia 47.6314
rfoot 8.37052 -3.20671
rtoes 4.83119
lfemur -70.8435 6.94852 -27.9316
ltibia 55.8898
lfoot 24.5057 -8.77368
ltoes 22.7607
1188
root 0.644083 14.9738 10.0569 94.4313 -50.58 -2.39087
lowerback -17.853 3.70639 14.8067
upperback 10.9296 2.27941 -8.09304
thorax 25.0342 4.76917 -18.175
lowerneck -17.8808 -0.32021 -0.263654
upperneck 14.3023 -2.38416 10.7866
head 7.51845 -0.153618 3.3303
rclavicle -2.78299e-014 -3.97569e-014
rhumerus 94.4337 -27.3916 -44.8619
rradius 32.8791
rwrist -31.5586
rhand -29.0645 5.34943
rfingers 7.12502
rthumb -2.414 -24.6167
lclavicle -2.78299e-014 -3.97569e-014
lhumerus 468.063 22.71 -334.604
lradius 24.1292
lwrist 20.5432
lhand -43.6178 -30.4404
lfingers 7.12502
lthumb -16.4532 -1.11808
rfemur -64.0684 0.306424 30.1643
rtibia 46.085
rfoot 8.64439 -3.05936
rtoes 4.34519
lfemur -70.6268 6.58348 -27.5915
ltibia 54.6994
lfoot 24.4594 -8.65457
ltoes 23.502
1189
root 0.680831 14.9506 10.0616 94.6807 -50.6705 -2.59074
lowerback -17.9848 3.78518 14.7445
upperback 10.8185 2.40126 -8.09494
thorax 25.0144 4.79313 -18.0719
lowerneck -17.633 -0.338242 -0.260397
upperneck 13.6436 -2.35759 10.905
head 7.26055 -0.160953 3.3574
rclavicle 1.59028e-014 3.97569e-014
rhumerus 94.2493 -27.4541 -44.3389
rradius 32.9954
rwrist -31.6458
rhand -30.0962 5.16583
rfingers 7.12502
rthumb -3.41034 -24.7866
lclavicle 1.59028e-014 3.97569e-014
lhumerus 468.083 22.8111 -334.605
lradius 24.0381
lwrist 20.2056
lhand -44.1777 -30.7496
lfingers 7.12502
lthumb -16.9922 -1.47287
rfemur -63.6796 0.264578 30.2751
rtibia 44.8981
rfoot 9.06035 -3.04012
rtoes 4.24855
lfemur -70.391 6.19203 -27.1919
ltibia 53.809
lfoot 24.3409 -8.63767
ltoes 23.5544
